<?xml version="1.0" encoding="UTF-8" standalone="no"?>
<svg
   xmlns:dc="http://purl.org/dc/elements/1.1/"
   xmlns:cc="http://creativecommons.org/ns#"
   xmlns:rdf="http://www.w3.org/1999/02/22-rdf-syntax-ns#"
   xmlns:svg="http://www.w3.org/2000/svg"
   xmlns="http://www.w3.org/2000/svg"
   xmlns:sodipodi="http://sodipodi.sourceforge.net/DTD/sodipodi-0.dtd"
   xmlns:inkscape="http://www.inkscape.org/namespaces/inkscape"
   width="24"
   height="24"
   viewBox="0 0 24 24"
   version="1.1"
   id="svg3779"
   sodipodi:docname="megaphone.svg"
   inkscape:version="0.92.4 (unknown)">
  <metadata
     id="metadata3785">
    <rdf:RDF>
      <cc:Work
         rdf:about="">
        <dc:format>image/svg+xml</dc:format>
        <dc:type
           rdf:resource="http://purl.org/dc/dcmitype/StillImage" />
      </cc:Work>
    </rdf:RDF>
  </metadata>
  <defs
     id="defs3783" />
  <sodipodi:namedview
     pagecolor="#ffffff"
     bordercolor="#666666"
     borderopacity="1"
     objecttolerance="10"
     gridtolerance="10"
     guidetolerance="10"
     inkscape:pageopacity="0"
     inkscape:pageshadow="2"
     inkscape:window-width="1600"
     inkscape:window-height="836"
     id="namedview3781"
     showgrid="false"
     inkscape:zoom="26.458333"
     inkscape:cx="12"
     inkscape:cy="12"
     inkscape:window-x="0"
     inkscape:window-y="27"
     inkscape:window-maximized="1"
     inkscape:current-layer="svg3779" />
  <path
     d="M3.662 8.68c-1.568.476-2.568.31-3.662-.784v7.104c1.032-1.099 2.093-1.438 3.662-.961l20.338 5.961v-17l-20.338 5.68zm11.338 10.739l-1.962 2.147c-.364.375-.907.521-1.412.381l-3.95-1.08c-.49-.136-.869-.52-.996-1.009l-.68-3.046 2.131.617.234 1.329c.085.323.336.578.659.668l2.142.579c.335.094.696-.002.937-.252l.795-.944 2.102.61z"
     id="path3777" />
</svg>
